<svg width="70" height="70" viewBox="0 0 70 70" fill="none" xmlns="http://www.w3.org/2000/svg">
<path opacity="0.8" d="M35 4C52.1208 4 66 17.8792 66 35C66 52.1208 52.1208 66 35 66C17.8792 66 4 52.1208 4 35C4 17.8792 17.8792 4 35 4Z" stroke="#E4DAFF" stroke-width="8"/>
<path d="M61 35C61 20.6406 49.3594 9 35 9C20.6406 9 9 20.6406 9 35C9 49.3594 20.6406 61 35 61C49.3594 61 61 49.3594 61 35Z" stroke="#5F2EEA" stroke-width="2"/>
<path d="M38 28L31.0368 34.9632L38 41.9263" stroke="#5F2EEA" stroke-width="2" stroke-linecap="round" stroke-linejoin="round"/>
</svg>
